# xmcd CD database file
#
# Track frame offsets:
#	150
#	18325
#	41452
#	63628
#	90416
#	109942
#	131693
#	153281
#	168342
#	184885
#
# Disc length: 2654 seconds
#
# Revision: 0
# Processed by: cddbd v1.5.2PL0 Copyright (c) Steve Scherf et al.
# Submitted via: CDex 1.51
#
DISCID=7c0a5c0a
DTITLE=Zoran Predin and The Gypsy Swing Band - Inventura
DYEAR=2009
DGENRE=Jazz
TTITLE0=Za Pola Vijeka
TTITLE1=Inventura
TTITLE2=Prohujali su Moji Vihori
TTITLE3=Ispod Nase Sretne Zvijezde
TTITLE4=Ni Sekundu Vise
TTITLE5=To Mi Radi
TTITLE6=Ja Sam Taj
TTITLE7=Alfa Muzjak
TTITLE8=Bilecanka
TTITLE9=Radetzky Mars
EXTD=YEAR: 2009
EXTT0=
EXTT1=
EXTT2=
EXTT3=
EXTT4=
EXTT5=
EXTT6=
EXTT7=
EXTT8=
EXTT9=
PLAYORDER=
